{"title":"Harry Potter and  the Deathly Hallows [2010] Hindi Dvd-Scr Dual-","uid":5996721,"size":784593098,"categoryP":"video","categoryS":"movies","magnet":"?xt=urn:btih:a3bb1c2a911eeb98d67c49fbe943a362d273566b&amp;dn=Harry+Potter+and++the+Deathly+Hallows+%5B2010%5D+Hindi+Dvd-Scr+Dual-&amp;tr=udp%3A%2F%2Ftracker.openbittorrent.com%3A80&amp;tr=udp%3A%2F%2Fopen.demonii.com%3A1337&amp;tr=udp%3A%2F%2Ftracker.coppersurfer.tk%3A6969&amp;tr=udp%3A%2F%2Fexodus.desync.com%3A6969","seeders":0,"leechers":1,"uploader":"amanrulz","files":2,"time":1291045336,"description":"mastitorrents.com\n &lt;a href=&quot;\nhttp://mastitorrents.com/forums/index.php&quot; rel=&quot;nofollow&quot; target=&quot;_NEW&quot;&gt;\nhttp://mastitorrents.com/forums/index.php&lt;/a&gt;\n\nGeneral\nComplete name : D:\\MOVIES\\DUBBED\\Harry Potter and the Deathly Hallows [2010] Dvd-Scr Dual-Audio-Rip By [~SAIF~] [~TDT]\\Harry Potter and the Deathly Hallows [2010] Dvd-Scr Dual-Audio-Rip By [~SAIF~] [~TDT].mkv\nFormat : Matroska\nFile size : 735 MiB\nDuration : 2h 9mn\nOverall bit rate : 795 Kbps\nEncoded date : UTC 2010-11-28 18:38:48\nWriting application : mkvmerge v4.1.1 ('Bouncin' Back') built on Jul 3 2010 22:54:08\nWriting library : libebml v1.0.0 + libmatroska v1.0.0\n\nVideo\nID : 1\nFormat : MPEG-4 Visual\nFormat profile : Advanced Simple@L5\nFormat settings, BVOP : Yes\nFormat settings, QPel : No\nFormat settings, GMC : No warppoints\nFormat settings, Matrix : Default (H.263)\nCodec ID : XVID\nCodec ID/Hint : XviD\nDuration : 2h 9mn\nBit rate : 587 Kbps\nWidth : 656 pixels\nHeight : 288 pixels\nDisplay aspect ratio : 2.25:1\nFrame rate : 25.000 fps\nColor space : YUV\nChroma subsampling : 4:2:0\nBit depth : 8 bits\nScan type : Progressive\nBits/(Pixel*Frame) : 0.124\nStream size : 543 MiB (74%)\nWriting library : XviD 1.2.1 (UTC 2008-12-04)\n\nAudio #1\nID : 2\nFormat : MPEG Audio\nFormat version : Version 1\nFormat profile : Layer 2\nCodec ID : A_MPEG/L2\nCodec ID/Hint : MP2\nDuration : 2h 9mn\nBit rate mode : Constant\nBit rate : 64.0 Kbps\nChannel(s) : 2 channels\nSampling rate : 48.0 KHz\nStream size : 59.1 MiB (8%)\nTitle : SAIF [ HINDI]\nLanguage : Hindi ","torrent":{"xt":"urn:btih:a3bb1c2a911eeb98d67c49fbe943a362d273566b","amp;dn":"Harry+Potter+and++the+Deathly+Hallows+%5B2010%5D+Hindi+Dvd-Scr+Dual-","amp;tr":["udp%3A%2F%2Ftracker.openbittorrent.com%3A80","udp%3A%2F%2Fopen.demonii.com%3A1337","udp%3A%2F%2Ftracker.coppersurfer.tk%3A6969","udp%3A%2F%2Fexodus.desync.com%3A6969"],"infoHash":"a3bb1c2a911eeb98d67c49fbe943a362d273566b","infoHashBuffer":{"type":"Buffer","data":[163,187,28,42,145,30,235,152,214,124,73,251,233,67,163,98,210,115,86,107]},"announce":[],"urlList":[]}}